<svg width="20" height="14" viewBox="0 0 20 14" fill="none" xmlns="http://www.w3.org/2000/svg">
<path d="M20 0.0130615H0V13.3465H20V0.0130615Z" fill="#F0F0F0"/>
<path d="M11.25 0.0129395H8.75V5.42957H0V7.92957H8.75V13.3462H11.25V7.92957H20V5.42957H11.25V0.0129395Z" fill="#D80027"/>
<path d="M15.3822 8.99841L20 11.5639V8.99841H15.3822Z" fill="#0052B4"/>
<path d="M12.1739 8.99841L20 13.3462V12.1168L14.387 8.99841H12.1739Z" fill="#0052B4"/>
<path d="M17.9154 13.3462L12.1739 10.1562V13.3462H17.9154Z" fill="#0052B4"/>
<path d="M12.1739 8.99841L20 13.3462V12.1168L14.387 8.99841H12.1739Z" fill="#F0F0F0"/>
<path d="M12.1739 8.99841L20 13.3462V12.1168L14.387 8.99841H12.1739Z" fill="#D80027"/>
<path d="M3.52895 8.99829L0 10.9588V8.99829H3.52895Z" fill="#0052B4"/>
<path d="M7.82611 9.55115V13.3461H0.995758L7.82611 9.55115Z" fill="#0052B4"/>
<path d="M5.61301 8.99841L0 12.1168V13.3462L7.82609 8.99841H5.61301Z" fill="#D80027"/>
<path d="M4.61777 4.36076L0 1.79529V4.36076H4.61777Z" fill="#0052B4"/>
<path d="M7.82609 4.36075L0 0.0129395V1.24239L5.61301 4.36075H7.82609Z" fill="#0052B4"/>
<path d="M2.08463 0.0129395L7.82611 3.20294V0.0129395H2.08463Z" fill="#0052B4"/>
<path d="M7.82609 4.36075L0 0.0129395V1.24239L5.61301 4.36075H7.82609Z" fill="#F0F0F0"/>
<path d="M7.82609 4.36075L0 0.0129395V1.24239L5.61301 4.36075H7.82609Z" fill="#D80027"/>
<path d="M16.4711 4.36082L20 2.40027V4.36082H16.4711Z" fill="#0052B4"/>
<path d="M12.1739 3.8079V0.0129395H19.0043L12.1739 3.8079Z" fill="#0052B4"/>
<path d="M14.387 4.36075L20 1.24239V0.0129395L12.1739 4.36075H14.387Z" fill="#D80027"/>
</svg>
