<svg width="126" height="42" viewBox="0 0 126 42" fill="none" xmlns="http://www.w3.org/2000/svg">
<g clip-path="url(#clip0)">
<path d="M22.9189 28.8657L29.2792 13.3507H27.6556L15.485 41.9865H0L16.7195 5.66763C18.3029 2.21836 21.7246 0.0135266 25.4952 0.0135266H39.9872L36.5252 8.11594H37.9208L41.4096 0H56.7872V41.9865H44.4556V13.3372H42.8722L37.1693 28.9063L22.9189 28.8657Z" fill="#FFDA00"/>
<path d="M57.7266 0.0135498H84.577L78.7668 13.3778H71.1451V14.5411H79.5182L85.986 0.0135498H100.236L85.2345 35.1556C83.4633 39.2947 79.4243 41.9729 74.9559 41.9729C73.7885 41.9729 72.554 41.9729 71.3195 41.9865C65.7643 42.0271 57.7266 41.9865 57.7266 41.9865V28.9063H73.4397L73.8959 27.6213H67.9783C62.3157 27.6213 57.7266 22.9952 57.7266 17.287V0.0135498Z" fill="#FFDA00"/>
<path d="M126 0V19.7082L116.956 19.7488L106.463 19.7894L107.63 14.5681L116.942 14.514V13.4589H107.885L106.463 19.7758L104.02 28.8657H116.956V27.6348L104.342 27.6483L105.939 21.7101L117.439 21.6696L126 21.6966V41.9865H83.4095L98.3443 6.62802C100.049 2.61063 103.953 0 108.287 0C116.392 0 119.479 0 126 0Z" fill="#FFDA00"/>
</g>
<defs>
<clipPath id="clip0">
<rect width="126" height="42" fill="white"/>
</clipPath>
</defs>
</svg>
